<svg width="32" height="40" viewBox="0 0 32 40" fill="none" xmlns="http://www.w3.org/2000/svg">
<path fill-rule="evenodd" clip-rule="evenodd" d="M15.3851 10.2547C15.7247 9.9151 16.2753 9.9151 16.6149 10.2547L25.7453 19.3851C26.0849 19.7247 26.0849 20.2753 25.7453 20.6149C25.4057 20.9545 24.8551 20.9545 24.5156 20.6149L23.971 20.0703V27.1014C23.971 28.7023 22.6733 30 21.0725 30H10.9275C9.32671 30 8.02899 28.7023 8.02899 27.1014V20.0703L7.48444 20.6149C7.14485 20.9545 6.59428 20.9545 6.25469 20.6149C5.9151 20.2753 5.9151 19.7247 6.25469 19.3851L15.3851 10.2547ZM9.76812 18.3312V27.1014C9.76812 27.7418 10.2872 28.2609 10.9275 28.2609H21.0725C21.7128 28.2609 22.2319 27.7418 22.2319 27.1014V18.3312L16 12.0993L9.76812 18.3312Z" fill="#888888"/>
</svg>
