<svg width="32" height="40" viewBox="0 0 32 40" fill="none" xmlns="http://www.w3.org/2000/svg">
<path fill-rule="evenodd" clip-rule="evenodd" d="M16 11.7391C14.5893 11.7391 13.4457 12.8828 13.4457 14.2935C13.4457 15.7042 14.5893 16.8478 16 16.8478C17.4107 16.8478 18.5543 15.7042 18.5543 14.2935C18.5543 12.8828 17.4107 11.7391 16 11.7391ZM11.7065 14.2935C11.7065 11.9223 13.6288 10 16 10C18.3712 10 20.2935 11.9223 20.2935 14.2935C20.2935 16.6647 18.3712 18.587 16 18.587C13.6288 18.587 11.7065 16.6647 11.7065 14.2935ZM6 26.8478C6 23.8463 8.43324 21.413 11.4348 21.413H20.5652C23.5668 21.413 26 23.8463 26 26.8478C26 28.5887 24.5887 30 22.8478 30H9.15217C7.41128 30 6 28.5887 6 26.8478ZM11.4348 23.1522C9.39373 23.1522 7.73913 24.8068 7.73913 26.8478C7.73913 27.6282 8.37177 28.2609 9.15217 28.2609H22.8478C23.6282 28.2609 24.2609 27.6282 24.2609 26.8478C24.2609 24.8068 22.6063 23.1522 20.5652 23.1522H11.4348Z" fill="#888888"/>
</svg>
